<svg fill="#000000" width="60px" height="60px" viewBox="0 0 4.2 4.2" xmlns="http://www.w3.org/2000/svg"><path d="M1.501 2.974H3.552c0.068 0 0.128 -0.056 0.128 -0.132 0 -0.076 -0.06 -0.132 -0.128 -0.132H1.53c-0.1 0 -0.162 -0.07 -0.178 -0.178l-0.028 -0.185h2.231c0.257 0 0.388 -0.158 0.425 -0.41l0.141 -0.93c0.004 -0.023 0.007 -0.051 0.007 -0.067 0 -0.084 -0.063 -0.142 -0.16 -0.142H1.098l-0.033 -0.223c-0.018 -0.135 -0.067 -0.204 -0.246 -0.204H0.202C0.131 0.372 0.071 0.434 0.071 0.504c0 0.072 0.06 0.134 0.13 0.134h0.594l0.281 1.93c0.037 0.25 0.169 0.406 0.424 0.406Zm2.329 -1.909L3.705 1.907c-0.014 0.109 -0.072 0.176 -0.176 0.176l-2.243 0.002 -0.149 -1.02ZM1.639 3.828a0.282 0.282 0 0 0 0.285 -0.285 0.284 0.284 0 0 0 -0.285 -0.285c-0.16 0 -0.286 0.127 -0.286 0.285 0 0.16 0.127 0.285 0.286 0.285Zm1.644 0c0.16 0 0.286 -0.125 0.286 -0.285 0 -0.158 -0.127 -0.285 -0.286 -0.285 -0.158 0 -0.286 0.127 -0.286 0.285 0 0.16 0.128 0.285 0.286 0.285Z"/></svg>